<svg xmlns="http://www.w3.org/2000/svg" viewBox="0 0 1440 320">
	<path fill="#000" fill-opacity="1" d="M0,128L30,144C60,160,120,192,180,186.7C240,181,300,139,360,138.7C420,139,480,181,540,170.7C600,160,660,96,720,90.7C780,85,840,139,900,160C960,181,1020,171,1080,176C1140,181,1200,203,1260,192C1320,181,1380,139,1410,117.3L1440,96L1440,320L1410,320C1380,320,1320,320,1260,320C1200,320,1140,320,1080,320C1020,320,960,320,900,320C840,320,780,320,720,320C660,320,600,320,540,320C480,320,420,320,360,320C300,320,240,320,180,320C120,320,60,320,30,320L0,320Z">
	</path>
</svg>
